<?xml version="1.0" standalone="no"?>
<!DOCTYPE svg PUBLIC "-//W3C//DTD SVG 20010904//EN"
 "http://www.w3.org/TR/2001/REC-SVG-20010904/DTD/svg10.dtd">
<svg version="1.0" xmlns="http://www.w3.org/2000/svg"
 width="200.000000pt" height="200.000000pt" viewBox="0 0 200.000000 200.000000"
 preserveAspectRatio="xMidYMid meet">

<g transform="translate(0.000000,200.000000) scale(0.100000,-0.100000)"
fill="#000000" stroke="none">
<path d="M2 1018 l3 -173 118 -2 c106 -1 135 5 107 22 -16 10 -1 25 26 25 33
0 31 24 -6 112 -16 38 -30 72 -30 74 0 2 11 4 24 4 18 0 27 -8 34 -30 6 -16
17 -36 24 -44 11 -11 15 -7 28 28 11 30 22 42 39 44 21 3 23 1 17 -24 -4 -16
-18 -53 -32 -82 -13 -29 -24 -58 -24 -65 0 -7 -9 -23 -20 -35 -11 -12 -20 -24
-20 -27 0 -3 264 -4 588 -3 l587 3 3 173 2 172 -735 0 -735 0 2 -172z m191
100 c33 -17 13 -33 -35 -30 -75 6 -72 -23 5 -48 25 -8 42 -21 48 -37 13 -35
12 -41 -16 -68 -28 -29 -72 -32 -115 -10 -34 17 -37 27 -15 45 12 10 18 10 29
1 18 -15 68 -10 74 7 2 7 -6 12 -23 12 -15 0 -39 12 -57 29 -27 25 -30 33 -24
64 10 52 66 67 129 35z m977 -8 c0 -29 2 -30 43 -30 36 0 49 -5 70 -30 39 -44
36 -69 -16 -118 -12 -12 -36 -17 -77 -18 l-60 -1 0 113 c0 107 1 114 20 114
16 0 20 -7 20 -30z m-330 -65 l0 -85 45 0 c41 0 45 -2 45 -25 0 -24 -2 -25
-65 -25 l-65 0 0 110 c0 103 1 110 20 110 18 0 20 -7 20 -85z m-283 4 c13 -25
17 -96 7 -123 -3 -9 -14 -16 -25 -16 -15 0 -18 9 -21 62 -3 53 -6 63 -22 66
-28 6 -46 -25 -46 -80 0 -41 -3 -48 -20 -48 -18 0 -20 7 -20 85 l0 85 40 -2
c22 -1 43 1 46 5 11 11 49 -10 61 -34z m177 12 c58 -50 23 -151 -53 -151 -33
0 -71 22 -71 42 0 10 -4 18 -10 18 -5 0 -10 14 -10 30 0 17 3 30 8 30 4 0 12
10 17 22 17 38 80 43 119 9z m344 6 c7 -6 12 -36 12 -81 l0 -72 -55 -1 c-45
-1 -59 3 -75 20 -25 26 -25 38 0 65 14 15 33 22 56 22 22 0 33 4 29 11 -4 6
-23 9 -43 7 -28 -2 -37 1 -40 14 -6 31 81 42 116 15z m347 9 c28 -20 13 -44
-24 -38 -39 5 -41 -13 -3 -21 36 -7 58 -46 43 -76 -18 -33 -77 -40 -119 -13
-21 14 -3 45 22 37 48 -15 66 -17 66 -7 0 6 -18 17 -40 23 -60 18 -67 77 -12
98 37 13 45 13 67 -3z"/>
<path d="M1181 1021 c-13 -23 -5 -48 19 -61 27 -14 52 10 48 45 -2 24 -8 31
-30 33 -18 2 -30 -3 -37 -17z"/>
<path d="M638 1015 c-10 -22 -9 -29 9 -46 37 -37 85 -1 68 51 -10 31 -62 27
-77 -5z"/>
<path d="M1003 983 c-18 -7 -16 -20 3 -27 19 -7 47 12 38 25 -6 10 -21 10 -41
2z"/>
<path d="M1510 1021 c0 -96 4 -162 10 -166 7 -4 10 52 10 159 0 104 -4 166
-10 166 -6 0 -10 -60 -10 -159z"/>
<path d="M1595 1160 c-3 -11 -3 -25 1 -31 3 -6 6 -62 5 -125 l-2 -114 26 0 26
0 -2 121 c-1 66 1 123 5 126 3 3 1 14 -5 24 -13 25 -46 24 -54 -1z m35 -16 c0
-8 -4 -12 -10 -9 -5 3 -10 10 -10 16 0 5 5 9 10 9 6 0 10 -7 10 -16z"/>
<path d="M1670 1091 c0 -14 8 -21 28 -23 27 -3 27 -3 30 -90 3 -86 3 -88 27
-88 24 0 24 2 27 88 3 87 3 87 31 90 19 2 27 9 27 23 0 17 -8 19 -85 19 -77 0
-85 -2 -85 -19z"/>
</g>
</svg>
